<svg width="21" height="20" viewBox="0 0 21 20" fill="none" xmlns="http://www.w3.org/2000/svg">
<g clip-path="url(#clip0_6254_1038)">
<path d="M4.88 0H16.12C18.5391 0 20.5 1.96094 20.5 4.38V15.62C20.5 18.0391 18.5391 20 16.12 20H4.88C2.46094 20 0.5 18.0391 0.5 15.62V4.38C0.5 1.96094 2.46094 0 4.88 0Z" fill="url(#paint0_linear_6254_1038)"/>
<path d="M6.90781 14.517L6.90969 14.5176L6.22586 15.702C5.97625 16.1343 5.42344 16.2824 4.99109 16.0328C4.55883 15.7832 4.41062 15.2304 4.66023 14.7981L5.16398 13.9256L5.21234 13.8418C5.29867 13.7178 5.51172 13.5035 5.93789 13.5439C5.93789 13.5439 6.94078 13.6527 7.01336 14.1739C7.01336 14.1739 7.0232 14.3454 6.90781 14.517ZM16.6065 11.492H14.4741C14.3289 11.4822 14.2655 11.4303 14.2405 11.4002L14.239 11.3974L11.9564 7.44385L11.9534 7.44581L11.8166 7.24956C11.5922 6.90643 11.2359 7.78393 11.2359 7.78393C10.8105 8.76174 11.2963 9.87338 11.4656 10.2094L14.6361 15.7008C14.8856 16.1331 15.4384 16.2813 15.8709 16.0316C16.3031 15.782 16.4513 15.2292 16.2016 14.7968L15.4089 13.4237C15.3935 13.3904 15.3668 13.3001 15.5294 13.2997H16.6065C17.1057 13.2997 17.5104 12.895 17.5104 12.3958C17.5104 11.8966 17.1057 11.4919 16.6065 11.4919V11.492ZM12.4648 12.7207C12.4648 12.7207 12.5786 13.2997 12.1382 13.2997H4.25547C3.75625 13.2997 3.35156 12.895 3.35156 12.3958C3.35156 11.8966 3.75625 11.4919 4.25547 11.4919H6.28203C6.60922 11.473 6.68672 11.2841 6.68672 11.2841L6.68859 11.285L9.33391 6.70315L9.33312 6.70299C9.38133 6.61448 9.34117 6.5308 9.33422 6.5176L8.46055 5.0044C8.21094 4.57213 8.35906 4.01924 8.79141 3.76971C9.22375 3.5201 9.77656 3.66815 10.0262 4.10049L10.4313 4.80229L10.8358 4.10174C11.0854 3.66948 11.6382 3.52127 12.0705 3.77096C12.5029 4.02057 12.651 4.5733 12.4014 5.00565L8.72031 11.3814C8.70422 11.4203 8.6993 11.4812 8.81906 11.4919H11.0194L11.0198 11.5134C11.0198 11.5134 12.2916 11.5331 12.4648 12.7207Z" fill="white"/>
</g>
<defs>
<linearGradient id="paint0_linear_6254_1038" x1="10.5" y1="0" x2="10.5" y2="20" gradientUnits="userSpaceOnUse">
<stop stop-color="#17C9FB"/>
<stop offset="1" stop-color="#1A74E8"/>
</linearGradient>
<clipPath id="clip0_6254_1038">
<rect width="20" height="20" fill="white" transform="translate(0.5)"/>
</clipPath>
</defs>
</svg>
