<svg width="16" height="16" viewBox="0 0 16 16" fill="none" xmlns="http://www.w3.org/2000/svg">
<path d="M3.33301 1.48376H12.666C13.6877 1.48376 14.5166 2.31165 14.5166 3.33337V12.6664C14.5166 13.6881 13.6877 14.517 12.666 14.517H3.33301C2.31128 14.517 1.4834 13.6881 1.4834 12.6664V3.33337L1.49219 3.14392C1.58705 2.21117 2.37523 1.48376 3.33301 1.48376ZM3.33301 2.51697C2.88197 2.51697 2.5166 2.88234 2.5166 3.33337V12.6664C2.5166 13.1174 2.88198 13.4838 3.33301 13.4838H12.666C13.117 13.4838 13.4834 13.1174 13.4834 12.6664V3.33337C13.4834 2.88234 13.117 2.51697 12.666 2.51697H3.33301ZM5.85547 4.14978C5.91869 5.83012 7.03761 6.81677 8 6.81677C8.96232 6.81655 10.0803 5.82992 10.1436 4.14978H11.1797C11.1143 6.23111 9.69312 7.84977 8 7.84998C6.30674 7.84998 4.88471 6.23125 4.81934 4.14978H5.85547Z" fill="white" stroke="#134E9B" stroke-width="0.3"/>
</svg>
