<svg width="21" height="20" viewBox="0 0 21 20" fill="none" xmlns="http://www.w3.org/2000/svg">
<g clip-path="url(#clip0_6254_1044)">
<path d="M15.2533 13.057C17.7892 11.756 19.7116 10.7647 19.8773 10.6876C20.4074 10.4243 20.9548 9.72721 19.8773 9.18575C19.5295 9.01546 17.6564 8.05502 15.2533 6.81641L11.9219 9.95984L15.2533 13.0569V13.057Z" fill="#FFD900"/>
<path d="M11.9201 9.95898L1.3125 19.9475C1.56148 19.9783 1.84258 19.9166 2.17398 19.7464C2.86977 19.3906 10.2457 15.6272 15.2515 13.0569L11.9201 9.95898Z" fill="#F43249"/>
<path d="M11.9209 9.9594L15.2523 6.83145C15.2523 6.83145 2.92094 0.543786 2.17484 0.172618C1.89375 0.0170707 1.57875 -0.0291336 1.29688 0.0170707L11.9209 9.9594Z" fill="#00EE76"/>
<path d="M11.9196 9.95991L1.29555 0.0175781C0.864375 0.110717 0.5 0.466629 0.5 1.19451V18.7715C0.5 19.4377 0.781953 19.9176 1.31203 19.9638L11.9196 9.95991Z" fill="#00D3FF"/>
</g>
<defs>
<clipPath id="clip0_6254_1044">
<rect width="20" height="20" fill="white" transform="translate(0.5)"/>
</clipPath>
</defs>
</svg>
