<svg width="16" height="16" viewBox="0 0 16 16" fill="none" xmlns="http://www.w3.org/2000/svg">
<path fill-rule="evenodd" clip-rule="evenodd" d="M8.00847 3.7145L7.28381 2.98984C5.85188 1.55791 3.53028 1.55791 2.09836 2.98984C0.666433 4.42176 0.666433 6.74336 2.09836 8.17529L7.99091 14.0678L7.99211 14.0666L8.00967 14.0842L13.9022 8.19164C15.3341 6.75972 15.3341 4.43812 13.9022 3.00619C12.4703 1.57427 10.1487 1.57427 8.71677 3.00619L8.00847 3.7145ZM7.99211 12.181L11.2829 8.8902L12.2501 7.95618L12.2511 7.95714L12.9594 7.24883C13.8706 6.33761 13.8706 4.86023 12.9594 3.949C12.0482 3.03778 10.5708 3.03778 9.65958 3.949L8.00919 5.5994L8.00436 5.59457L8.00364 5.59529L6.341 3.93264C5.42977 3.02142 3.95239 3.02142 3.04116 3.93264C2.12994 4.84387 2.12994 6.32125 3.04117 7.23248L4.73412 8.92543L4.73531 8.92423L7.99211 12.181Z" fill="#5F728B"/>
</svg>
