<svg width="24" height="24" viewBox="0 0 24 24" fill="none" xmlns="http://www.w3.org/2000/svg">
<g clip-path="url(#clip0_6254_1069)">
<path d="M12 0C8.81812 0 5.76375 1.26506 3.51562 3.51469C1.26518 5.76521 0.000623381 8.81734 0 12C0 15.1813 1.26562 18.2357 3.51562 20.4853C5.76375 22.7349 8.81812 24 12 24C15.1819 24 18.2362 22.7349 20.4844 20.4853C22.7344 18.2357 24 15.1813 24 12C24 8.81869 22.7344 5.76431 20.4844 3.51469C18.2362 1.26506 15.1819 0 12 0Z" fill="url(#paint0_linear_6254_1069)"/>
<path d="M5.43477 11.8721C8.93352 10.3481 11.266 9.34326 12.4323 8.85782C15.766 7.47163 16.4579 7.23088 16.9098 7.22273C17.0091 7.22113 17.2304 7.2457 17.3748 7.36241C17.4948 7.46085 17.5285 7.59398 17.5454 7.68745C17.5604 7.78082 17.581 7.99363 17.5641 8.15976C17.3841 10.0573 16.6023 14.6619 16.2048 16.7872C16.0379 17.6864 15.706 17.9879 15.3854 18.0174C14.6879 18.0815 14.1591 17.5569 13.4841 17.1146C12.4285 16.4221 11.8323 15.9913 10.8066 15.3157C9.62165 14.5349 10.3904 14.1058 11.0654 13.4045C11.2416 13.2209 14.3129 10.4281 14.371 10.1748C14.3785 10.1431 14.386 10.025 14.3148 9.96276C14.2454 9.90032 14.1423 9.9217 14.0673 9.93857C13.9604 9.96257 12.2748 11.0778 9.00477 13.2841C8.52665 13.613 8.09352 13.7733 7.70352 13.7649C7.27602 13.7557 6.45102 13.5226 5.8379 13.3235C5.0879 13.0792 4.48977 12.95 4.54227 12.5351C4.56852 12.3191 4.86665 12.098 5.43477 11.8721Z" fill="white"/>
</g>
<defs>
<linearGradient id="paint0_linear_6254_1069" x1="12" y1="0" x2="12" y2="24" gradientUnits="userSpaceOnUse">
<stop stop-color="#2AABEE"/>
<stop offset="1" stop-color="#229ED9"/>
</linearGradient>
<clipPath id="clip0_6254_1069">
<rect width="24" height="24" fill="white"/>
</clipPath>
</defs>
</svg>
