<svg width="24" height="20" viewBox="0 0 24 20" fill="none" xmlns="http://www.w3.org/2000/svg">
<g clip-path="url(#clip0_6254_1074)">
<path d="M24 2.43487C23.1013 2.84126 22.148 3.10801 21.1719 3.22626C22.1887 2.60425 22.9693 1.61927 23.3369 0.445685C22.3704 1.03113 21.3129 1.44361 20.2103 1.6653C19.312 0.688556 18.0324 0.078125 16.6162 0.078125C13.8968 0.078125 11.6921 2.32846 11.6921 5.10396C11.6921 5.49793 11.7357 5.88147 11.8196 6.24942C7.72744 6.03975 4.09931 4.03889 1.67072 0.998125C1.24697 1.74042 1.00416 2.60387 1.00416 3.52482C1.00416 5.26856 1.8735 6.80683 3.19462 7.70817C2.4127 7.68318 1.64798 7.46761 0.964313 7.07946C0.964031 7.10052 0.964031 7.12157 0.964031 7.14272C0.964031 9.57784 2.66128 11.6092 4.91372 12.0709C4.18864 12.2722 3.42809 12.3017 2.69016 12.1571C3.31669 14.1538 5.13516 15.6068 7.28972 15.6475C5.60456 16.9954 3.48141 17.799 1.17459 17.799C0.777094 17.799 0.385219 17.7752 0 17.7287C2.17903 19.1548 4.76719 19.9868 7.54781 19.9868C16.6047 19.9868 21.5573 12.3284 21.5573 5.68683C21.5573 5.46884 21.5526 5.2521 21.543 5.03659C22.507 4.32529 23.339 3.44426 24 2.43487Z" fill="#55ACEE"/>
</g>
<defs>
<clipPath id="clip0_6254_1074">
<rect width="24" height="20" fill="white"/>
</clipPath>
</defs>
</svg>
