<svg width="24" height="16" viewBox="0 0 24 16" fill="none" xmlns="http://www.w3.org/2000/svg">
<g clip-path="url(#clip0_6254_1065)">
<path d="M23.47 2.49556C23.3323 2.0132 23.0638 1.57346 22.6911 1.22011C22.3185 0.866766 21.8547 0.612143 21.346 0.4816C19.4835 0 11.9878 0 11.9878 0C11.9878 0 4.49177 0.0145777 2.62933 0.496178C2.1206 0.626729 1.65681 0.881365 1.28415 1.23473C0.911497 1.58809 0.642976 2.02786 0.505331 2.51022C-0.0580132 5.64782 -0.276545 10.4288 0.520799 13.4409C0.658459 13.9232 0.926986 14.363 1.29964 14.7163C1.6723 15.0697 2.13608 15.3243 2.6448 15.4548C4.50724 15.9364 12.0031 15.9364 12.0031 15.9364C12.0031 15.9364 19.4989 15.9364 21.3612 15.4548C21.87 15.3243 22.3338 15.0697 22.7064 14.7163C23.0791 14.363 23.3477 13.9233 23.4853 13.4409C24.0795 10.2988 24.2626 5.52089 23.47 2.49564V2.49556Z" fill="#FF0000"/>
<path d="M9.60156 11.3846L15.8198 7.96962L9.60156 4.55469V11.3846Z" fill="white"/>
</g>
<defs>
<clipPath id="clip0_6254_1065">
<rect width="24" height="16" fill="white"/>
</clipPath>
</defs>
</svg>
